<?xml version="1.0" standalone="no"?>
<!DOCTYPE svg PUBLIC "-//W3C//DTD SVG 20010904//EN"
 "http://www.w3.org/TR/2001/REC-SVG-20010904/DTD/svg10.dtd">
<svg version="1.0" xmlns="http://www.w3.org/2000/svg"
 width="1050.000000pt" height="600.000000pt" viewBox="0 0 1050.000000 600.000000"
 preserveAspectRatio="xMidYMid meet">

<g transform="translate(0.000000,600.000000) scale(0.100000,-0.100000)"
fill="#FFFFFF" stroke="none">
<path d="M5105 5264 c-468 -38 -909 -235 -1238 -553 -49 -47 -93 -94 -98 -103
-13 -24 6 -58 32 -58 11 0 72 47 140 109 146 132 239 200 384 280 537 298
1192 316 1750 47 492 -237 853 -668 1010 -1205 26 -92 33 -106 53 -109 13 -2
30 2 39 9 21 18 13 67 -32 203 -72 216 -177 417 -306 588 -75 99 -238 268
-329 343 -273 223 -626 379 -973 430 -109 16 -342 26 -432 19z"/>
<path d="M4895 5081 c-33 -10 -89 -30 -125 -46 -36 -15 -89 -36 -119 -46 -30
-11 -57 -21 -59 -24 -16 -15 80 14 199 61 76 30 144 54 153 54 9 0 16 5 16 10
0 6 -1 10 -2 9 -2 0 -30 -9 -63 -18z"/>
<path d="M5350 4978 c-55 -70 -172 -186 -266 -265 l-50 -42 -60 39 c-45 31
-61 37 -70 27 -6 -6 -54 -66 -106 -132 -106 -134 -161 -192 -197 -206 -14 -6
-88 -15 -165 -21 l-141 -10 -125 -122 c-69 -66 -167 -159 -219 -206 -52 -46
-88 -86 -82 -88 7 -2 20 3 29 11 9 8 107 63 216 122 110 59 218 119 240 132
28 18 63 28 120 35 122 13 129 17 193 92 36 44 90 92 145 129 l88 60 20 -24
c11 -13 38 -47 60 -76 l41 -51 -62 -82 -61 -82 36 -30 c20 -16 36 -33 36 -38
0 -16 -126 -99 -236 -156 -60 -31 -110 -60 -112 -64 -13 -35 78 -6 268 85 76
36 171 73 215 83 l78 19 -38 29 c-39 29 -115 118 -115 134 0 21 56 71 127 112
50 30 109 77 163 132 l85 86 -47 47 -46 46 61 58 62 59 45 -44 c25 -23 66 -51
92 -60 66 -24 120 -66 222 -172 l90 -93 26 -107 27 -106 46 73 c26 41 55 84
65 97 l18 23 78 -40 c43 -23 122 -71 175 -109 53 -37 134 -94 181 -126 47 -31
135 -98 195 -147 61 -50 124 -97 140 -105 44 -22 -174 188 -344 330 -79 67
-169 143 -200 169 -31 27 -92 76 -136 109 l-79 60 -82 -6 -82 -7 -39 47 c-76
95 -140 158 -238 237 -55 44 -129 108 -165 143 l-65 62 -55 -70z"/>
<path d="M4385 4875 c-99 -47 -196 -96 -215 -109 -33 -22 -280 -244 -280 -252
0 -12 196 139 255 197 49 47 87 74 125 89 93 36 328 160 305 160 -6 0 -92 -38
-190 -85z"/>
<path d="M6167 4846 c3 -16 32 -42 90 -82 110 -74 292 -250 368 -354 33 -45
99 -134 147 -198 73 -98 98 -141 157 -277 38 -88 75 -180 82 -205 15 -53 29
-73 29 -41 0 27 -40 149 -80 243 -35 82 -97 189 -147 255 -20 26 -68 97 -106
158 -90 142 -143 201 -296 333 -113 98 -233 192 -244 192 -2 0 -2 -11 0 -24z"/>
<path d="M5243 3875 c-69 -35 -120 -86 -134 -138 -7 -23 -18 -49 -26 -58 -7
-8 -13 -22 -13 -30 0 -19 51 -123 62 -127 4 -2 8 -185 8 -407 0 -349 -2 -404
-15 -409 -8 -3 -15 -12 -15 -20 0 -9 -9 -31 -20 -51 -24 -42 -26 -78 -5 -95 8
-7 15 -19 15 -28 0 -8 11 -34 24 -57 64 -109 238 -161 340 -101 56 33 116 118
116 164 0 11 7 23 16 26 21 8 14 79 -10 105 -9 10 -16 25 -16 35 0 9 -7 19
-15 22 -13 5 -15 60 -15 409 0 349 2 404 15 409 8 3 15 15 15 26 0 11 4 20 8
20 5 0 16 19 26 42 15 41 15 44 -3 68 -10 14 -21 39 -25 56 -9 41 -74 123
-116 146 -53 28 -153 25 -217 -7z m229 -20 c22 -15 38 -29 35 -32 -3 -2 -16 2
-29 11 -25 17 -108 48 -108 41 0 -3 27 -19 61 -35 37 -19 67 -42 77 -60 24
-42 44 -41 22 1 -6 10 -8 19 -6 19 6 0 36 -55 36 -65 0 -9 -104 7 -111 17 -6
10 -134 3 -214 -12 -39 -7 -28 -8 50 -4 98 5 262 -9 276 -23 5 -5 -95 -8 -221
-8 l-228 0 14 35 c26 62 90 114 174 141 45 15 129 2 172 -26z m13 -175 l-60
-7 59 -1 c103 -3 51 -15 -96 -22 l-143 -7 130 -3 c87 -2 118 -5 95 -10 l-35
-7 40 -3 c39 -2 39 -3 10 -10 -16 -4 -84 -9 -150 -10 l-120 -3 140 -9 c77 -4
155 -9 173 -10 27 -2 30 -4 15 -12 -11 -7 -89 -11 -195 -11 -97 0 -171 -3
-165 -7 7 -4 -2 -8 -19 -8 -40 0 -54 27 -21 40 21 8 21 9 -5 9 -34 1 -36 14
-5 29 21 10 20 10 -8 9 -20 -1 -30 3 -30 13 0 17 33 27 100 31 l50 2 -50 7
c-28 4 36 7 150 7 120 0 176 -3 140 -7z m-358 -6 c-3 -3 -12 -4 -19 -1 -8 3
-5 6 6 6 11 1 17 -2 13 -5z m463 -9 c14 -17 5 -35 -16 -35 -8 0 -12 5 -9 10 3
6 1 10 -6 10 -7 0 -9 3 -6 6 4 4 13 1 22 -6 11 -9 15 -9 15 -1 0 6 -10 16 -22
21 -16 6 -18 9 -7 9 9 1 22 -6 29 -14z m-53 -21 c-3 -3 -12 -4 -19 -1 -8 3 -5
6 6 6 11 1 17 -2 13 -5z m43 -39 c0 -9 -10 -15 -26 -15 -15 0 -23 4 -19 11 4
6 14 8 22 5 8 -3 11 -1 8 4 -3 6 -1 10 4 10 6 0 11 -7 11 -15z m-25 -55 c4 -6
-7 -10 -27 -9 -31 1 -32 1 -8 9 14 4 26 8 27 9 1 1 5 -3 8 -9z m-72 -20 l37 0
0 -409 c0 -364 -2 -410 -16 -415 -48 -19 -60 15 -19 54 23 21 25 31 25 104 l0
80 -34 -33 c-34 -33 -34 -33 -39 -10 -3 19 -5 17 -6 -8 -1 -25 -17 -50 -72
-110 -39 -43 -76 -81 -82 -84 -7 -3 -33 -4 -59 -1 l-48 4 0 408 c0 442 -3 420
53 420 19 0 18 -3 -11 -33 -30 -31 -32 -37 -32 -106 0 -61 3 -72 15 -67 12 4
15 -6 15 -58 0 -44 -5 -67 -15 -76 -11 -9 -15 -33 -15 -94 l0 -81 47 50 c26
28 78 83 115 123 l68 72 0 -62 -1 -63 -82 -91 c-51 -57 -85 -87 -89 -80 -5 6
-8 3 -8 -10 0 -11 -11 -31 -25 -44 -23 -21 -25 -31 -25 -103 0 -68 2 -78 14
-68 12 10 15 8 19 -11 3 -17 5 -14 7 12 l2 35 8 -30 8 -30 1 36 c1 32 17 54
136 183 l135 146 0 69 c0 37 -3 71 -7 74 -4 4 -19 -5 -35 -20 -19 -18 -28 -22
-29 -12 -1 8 -5 3 -9 -11 -6 -19 -8 -11 -9 34 -1 57 1 61 44 107 l45 48 0 76
c0 41 -3 75 -8 75 -10 0 -82 -74 -187 -192 -48 -54 -88 -98 -91 -98 -2 0 -4
21 -3 48 0 35 3 42 9 27 7 -15 9 -9 9 25 1 42 5 49 84 128 62 63 87 82 102 78
11 -3 37 -6 58 -6z m-303 -850 c-10 -6 9 -8 55 -5 39 3 127 7 198 9 126 5 127
5 126 -17 0 -12 -3 -17 -5 -10 -4 8 -15 8 -42 1 -20 -6 -95 -14 -167 -18
l-130 -7 115 -2 c63 -1 135 -6 160 -10 l45 -8 -55 -2 c-41 -2 -50 -5 -35 -11
13 -6 -11 -9 -75 -11 l-95 -2 128 -8 c138 -8 177 -18 81 -21 l-59 -1 60 -7
c36 -4 -20 -7 -140 -7 -118 0 -182 3 -155 7 37 6 32 7 -25 5 -38 -2 -61 0 -51
4 19 7 19 8 -2 13 -12 4 -22 14 -22 23 0 13 6 15 33 11 29 -5 30 -5 10 6 -31
15 -29 28 5 29 26 0 26 1 5 9 -33 13 -19 40 21 40 23 0 27 -3 16 -10z m400
-55 c0 -8 -5 -15 -11 -15 -5 0 -7 5 -3 12 5 8 2 9 -9 5 -9 -3 -19 -2 -22 3 -4
6 5 10 19 10 16 0 26 -6 26 -15z m20 -38 c0 -16 -20 -37 -34 -37 -6 0 -3 5 7
11 9 5 17 15 17 21 0 7 -4 7 -12 1 -7 -6 -31 -8 -53 -5 l-40 6 35 7 c58 11 80
10 80 -4z m-43 -69 c-28 -15 -179 -30 -262 -25 -75 4 -82 4 -40 -4 81 -16 203
-22 185 -10 -12 8 -7 11 21 11 20 0 51 3 68 6 27 6 30 4 25 -10 -4 -9 -12 -15
-18 -13 -6 2 -18 -8 -27 -23 -9 -15 -46 -42 -82 -61 -36 -18 -64 -35 -63 -37
7 -6 109 37 130 55 l21 18 -20 -24 c-25 -30 -91 -60 -131 -61 -88 0 -195 63
-234 141 -11 21 -20 40 -20 42 0 2 103 3 229 3 126 -1 224 -4 218 -8z"/>
<path d="M5465 3785 c34 -28 47 -31 39 -11 -5 12 -46 36 -62 36 -4 0 7 -11 23
-25z"/>
<path d="M5450 3770 c20 -13 33 -13 25 0 -3 6 -14 10 -23 10 -15 0 -15 -2 -2
-10z"/>
<path d="M5218 3633 c7 -3 16 -2 19 1 4 3 -2 6 -13 5 -11 0 -14 -3 -6 -6z"/>
<path d="M5373 3563 c9 -2 25 -2 35 0 9 3 1 5 -18 5 -19 0 -27 -2 -17 -5z"/>
<path d="M5498 2673 c6 -2 18 -2 25 0 6 3 1 5 -13 5 -14 0 -19 -2 -12 -5z"/>
<path d="M5343 2663 c15 -2 39 -2 55 0 15 2 2 4 -28 4 -30 0 -43 -2 -27 -4z"/>
<path d="M5218 2593 c12 -2 30 -2 40 0 9 3 -1 5 -23 4 -22 0 -30 -2 -17 -4z"/>
<path d="M5450 2460 c-9 -6 -10 -10 -3 -10 6 0 15 5 18 10 8 12 4 12 -15 0z"/>
<path d="M5465 2445 c-16 -14 -25 -25 -18 -25 7 0 25 11 40 25 36 32 17 32
-22 0z"/>
<path d="M3720 3497 c-45 -16 -77 -65 -85 -131 -4 -30 -5 -134 -3 -232 3 -165
5 -182 26 -215 12 -20 37 -43 55 -50 48 -21 131 -17 164 7 55 41 58 58 58 311
0 218 -1 233 -21 260 -41 57 -117 76 -194 50z m100 -97 c19 -19 20 -33 20
-220 0 -188 -1 -201 -21 -221 -20 -20 -51 -19 -74 3 -6 5 -10 92 -10 219 0
197 1 212 19 225 27 19 42 18 66 -6z"/>
<path d="M3150 3180 l0 -320 40 0 40 0 1 213 c0 133 4 203 9 187 5 -14 20 -99
35 -190 36 -233 27 -212 83 -208 l47 3 30 200 30 200 3 -202 2 -203 50 0 50 0
0 320 0 320 -69 0 c-81 0 -69 27 -107 -232 -15 -104 -31 -188 -34 -188 -3 0
-21 95 -40 210 l-34 210 -68 0 -68 0 0 -320z"/>
<path d="M4000 3180 l0 -320 45 0 45 0 0 227 c0 124 2 224 4 222 3 -3 26 -81
51 -174 25 -94 53 -194 61 -222 l15 -53 49 0 50 0 0 320 0 320 -45 0 -45 0 -2
-177 -3 -178 -33 125 c-18 69 -40 149 -48 178 l-15 52 -65 0 -64 0 0 -320z"/>
<path d="M4370 3455 l0 -45 50 0 50 0 0 -275 0 -275 55 0 55 0 0 275 0 275 50
0 50 0 0 45 0 45 -155 0 -155 0 0 -45z"/>
<path d="M4730 3180 l0 -320 135 0 135 0 0 45 0 45 -85 0 -85 0 0 95 0 95 70
0 70 0 0 45 0 45 -70 0 -70 0 0 90 0 90 85 0 85 0 0 45 0 45 -135 0 -135 0 0
-320z"/>
<path d="M7231 3483 c-73 -38 -76 -49 -79 -293 -3 -200 -2 -223 16 -264 27
-60 61 -81 131 -80 68 0 114 23 138 67 16 28 18 61 18 257 0 244 -5 270 -59
306 -39 25 -125 29 -165 7z m105 -87 c18 -13 19 -28 19 -226 0 -198 -1 -213
-19 -226 -27 -19 -42 -18 -66 6 -19 19 -20 33 -20 220 0 187 1 201 20 220 24
24 39 25 66 6z"/>
<path d="M5680 3170 l0 -320 98 0 c145 0 196 34 208 137 10 79 -3 139 -38 178
-24 28 -27 36 -15 41 22 8 47 77 46 127 0 64 -20 109 -58 134 -30 20 -46 23
-137 23 l-104 0 0 -320z m184 208 c9 -12 16 -41 16 -63 0 -56 -22 -85 -66 -85
l-34 0 0 85 0 85 34 0 c25 0 39 -7 50 -22z m1 -252 c13 -10 20 -30 23 -75 6
-82 -12 -111 -68 -111 l-40 0 0 100 0 100 33 0 c18 0 42 -6 52 -14z"/>
<path d="M6050 3170 l0 -320 50 0 50 0 0 130 0 130 34 0 c53 0 66 -26 66 -136
0 -121 2 -124 59 -124 l47 0 -3 103 c-5 138 -9 160 -38 187 l-25 24 27 28 c27
28 28 34 28 123 0 79 -3 98 -21 122 -33 44 -60 53 -171 53 l-103 0 0 -320z
m184 214 c11 -11 16 -35 16 -80 0 -74 -20 -104 -70 -104 l-30 0 0 100 0 100
34 0 c19 0 42 -7 50 -16z"/>
<path d="M6490 3481 c0 -12 -88 -566 -96 -603 -5 -27 -4 -28 40 -28 49 0 49 1
61 78 l7 42 59 0 c65 0 64 1 74 -72 l6 -48 50 0 c27 0 49 4 49 9 0 10 -88 564
-96 604 -5 27 -7 27 -80 27 -41 0 -74 -4 -74 -9z m119 -418 c1 -13 -79 -19
-91 -8 -3 4 35 281 42 305 2 5 48 -275 49 -297z"/>
<path d="M6766 3473 c4 -20 94 -609 94 -617 0 -4 34 -6 75 -6 69 0 75 2 80 23
2 12 23 144 45 292 22 149 43 282 46 298 5 26 4 27 -40 27 -34 0 -46 -4 -50
-17 -2 -10 -19 -122 -37 -250 -19 -127 -36 -230 -38 -227 -3 2 -21 114 -40
247 l-36 242 -52 3 c-45 3 -51 1 -47 -15z"/>
<path d="M6888 2469 c-14 -19 -48 -70 -74 -114 -27 -44 -85 -125 -129 -180
-44 -55 -91 -116 -105 -135 -13 -19 -73 -86 -134 -148 -104 -106 -115 -114
-177 -133 -37 -11 -102 -41 -145 -66 -171 -98 -224 -122 -379 -168 -147 -43
-174 -56 -175 -78 0 -10 30 -2 190 49 91 29 171 63 245 105 61 34 150 79 199
100 165 72 252 136 323 238 25 36 72 93 104 126 114 120 298 393 287 427 -2 6
-16 -4 -30 -23z"/>
<path d="M6987 2439 c-9 -6 -30 -36 -46 -67 -141 -277 -377 -538 -646 -715
-903 -594 -2113 -323 -2677 599 -48 80 -54 85 -82 82 -53 -5 -47 -42 26 -157
223 -353 564 -636 953 -789 239 -95 458 -135 725 -135 457 1 839 128 1210 401
211 156 455 446 579 689 25 50 26 66 5 87 -18 19 -23 19 -47 5z"/>
<path d="M3650 2355 c0 -21 45 -109 91 -176 57 -85 359 -383 416 -413 26 -13
82 -53 125 -87 70 -59 164 -122 128 -87 -75 74 -194 166 -244 188 -62 28 -88
52 -141 125 -16 22 -81 94 -145 160 -96 100 -124 136 -163 213 -45 87 -67 112
-67 77z"/>
<path d="M4420 2191 c0 -6 5 -13 10 -16 14 -9 13 -148 -2 -163 -19 -19 92 -16
120 4 25 17 29 46 8 63 -11 9 -12 7 -9 -13 6 -29 -24 -49 -65 -44 -24 3 -27 7
-27 38 0 34 1 35 37 34 21 -1 35 3 32 7 -3 5 -21 9 -40 9 -31 0 -34 2 -34 30
0 28 2 30 38 30 48 0 65 -15 50 -44 -10 -19 -10 -20 6 -7 23 19 16 53 -14 68
-29 15 -110 17 -110 4z"/>
<path d="M4655 2177 c7 -25 -40 -157 -56 -157 -5 0 -9 -4 -9 -10 0 -5 16 -10
37 -10 34 0 35 1 20 18 -29 32 -21 42 32 42 54 0 68 -14 43 -42 -14 -17 -12
-18 23 -18 36 0 37 1 21 18 -9 11 -29 54 -45 98 -23 62 -33 80 -50 82 -18 3
-21 0 -16 -21z m60 -79 c7 -27 6 -28 -33 -28 l-41 0 16 46 c15 44 16 45 34 27
10 -10 21 -30 24 -45z"/>
<path d="M4810 2192 c0 -6 5 -14 10 -17 17 -11 12 -136 -7 -157 -15 -17 -14
-18 28 -17 43 0 43 0 22 16 -20 13 -23 24 -23 85 l0 69 41 -3 c79 -6 74 -67
-5 -69 -28 0 -29 -1 -9 -9 12 -5 31 -27 43 -50 14 -28 27 -40 42 -40 20 0 18
4 -17 40 -21 22 -37 41 -34 43 2 3 14 9 25 15 29 15 36 48 15 74 -13 16 -32
22 -74 26 -37 3 -57 1 -57 -6z"/>
<path d="M5003 2182 c24 -26 23 -138 0 -165 -18 -19 -17 -19 50 -15 72 4 87
14 87 55 0 26 -44 53 -85 53 -21 0 -25 5 -25 30 0 28 2 30 40 30 44 0 61 -19
40 -45 -8 -10 -9 -15 -2 -15 6 0 16 9 22 20 23 43 -19 70 -108 70 -33 0 -34
-1 -19 -18z m92 -92 c57 -22 35 -70 -32 -70 -32 0 -33 1 -33 40 0 44 13 50 65
30z"/>
<path d="M5170 2190 c0 -5 5 -10 10 -10 15 0 13 -153 -2 -168 -9 -9 4 -12 60
-12 40 0 72 4 72 9 0 5 3 17 7 27 6 17 5 17 -17 1 -14 -9 -39 -17 -57 -17 -32
0 -33 2 -33 39 0 37 2 40 33 44 l32 4 -32 1 c-30 2 -33 5 -33 32 0 28 2 30 38
30 21 0 44 -6 51 -12 10 -11 12 -8 9 12 -3 24 -7 25 -70 28 -43 2 -68 -1 -68
-8z"/>
<path d="M5360 2192 c0 -6 5 -14 10 -17 17 -11 12 -136 -7 -157 -15 -17 -14
-18 27 -18 l43 0 -21 23 c-18 19 -22 35 -22 86 l0 62 47 -3 c38 -2 49 -7 51
-22 5 -25 -23 -46 -62 -47 -21 -1 -24 -3 -10 -6 12 -2 29 -21 42 -48 15 -32
28 -45 43 -45 18 0 17 4 -15 43 l-36 44 24 11 c35 16 43 50 18 75 -23 23 -132
38 -132 19z"/>
<path d="M5572 2184 c-43 -30 -21 -71 51 -94 46 -14 58 -37 31 -57 -18 -14
-48 -13 -86 2 -12 5 -18 2 -18 -8 0 -18 21 -27 61 -27 43 0 69 17 69 44 0 28
-24 50 -72 65 -71 23 -51 67 27 59 47 -6 59 4 26 22 -28 14 -63 12 -89 -6z"/>
<path d="M5720 2191 c0 -5 7 -14 15 -21 22 -18 21 -127 -2 -152 -15 -17 -14
-18 22 -18 36 0 37 1 22 18 -10 10 -17 31 -17 45 0 26 2 27 55 27 53 0 55 -1
55 -27 0 -14 -7 -35 -17 -45 -15 -17 -14 -18 21 -18 33 0 36 2 26 19 -13 25
-13 148 0 156 20 12 9 25 -20 25 -29 0 -40 -13 -20 -25 6 -3 10 -22 10 -41 l0
-34 -55 0 -55 0 0 32 c0 17 7 40 17 50 15 17 14 18 -20 18 -21 0 -37 -4 -37
-9z"/>
<path d="M5973 2176 c-24 -21 -28 -32 -28 -76 0 -44 4 -55 28 -76 53 -45 125
-25 147 41 32 97 -72 175 -147 111z m115 -22 c16 -11 22 -25 22 -52 0 -46 -8
-58 -44 -72 -40 -15 -94 4 -107 37 -13 35 -11 47 12 77 24 31 81 36 117 10z"/>
<path d="M6168 2188 c19 -19 16 -147 -5 -170 -15 -17 -14 -18 27 -18 41 0 42
1 27 18 -12 13 -17 37 -17 86 l0 67 43 -3 c35 -3 43 -7 45 -27 5 -29 -7 -41
-50 -51 l-33 -8 30 -1 c56 -2 93 46 67 86 -11 18 -59 33 -105 33 -32 0 -38 -3
-29 -12z"/>
<path d="M6336 1905 c4 -8 10 -15 15 -15 5 0 9 7 9 15 0 8 -7 15 -15 15 -9 0
-12 -6 -9 -15z"/>
</g>
</svg>
